<!-- Generator: Adobe Illustrator 21.1.0, SVG Export Plug-In  -->
<svg version="1.2" baseProfile="tiny"
	 xmlns="http://www.w3.org/2000/svg" xmlns:xlink="http://www.w3.org/1999/xlink" xmlns:a="http://ns.adobe.com/AdobeSVGViewerExtensions/3.0/"
	 x="0px" y="0px" width="46.2px" height="50.3px" viewBox="0 0 46.2 50.3" xml:space="preserve">
<defs>
</defs>
<path fill="#FFF" d="M19.8,43.7c0.5-0.8,1-1.7,1.5-2.4c0.3-0.7,1.1-0.9,1.8-0.6c0.1,0,0.1,0.1,0.2,0.1c0.4,0.3,4.9,4.1,9.5,4.1
	c4.1,0,6.7-2.5,6.7-5.5c0-3.6-3.1-5.8-9-8.2c-6.1-2.5-10.8-5.7-10.8-12.6c0-4.6,3.6-11,13-11c3.9,0.1,7.8,1.3,11,3.5
	c0.6,0.4,0.8,1.3,0.4,2c0,0,0,0,0,0l-1.4,2.3c-0.3,0.7-1.1,1-1.8,0.7c-0.1,0-0.2-0.1-0.2-0.1c-0.4-0.2-4.6-3-8-3
	c-5,0-6.7,3.1-6.7,5.3c0,3.4,2.6,5.5,7.5,7.5c6.9,2.8,12.8,6.1,12.8,13.3c0,6.2-5.5,11.2-13.2,11.2c-4.7,0-9.2-1.6-12.8-4.7
	c-0.6-0.3-0.8-1.1-0.5-1.7C19.7,43.8,19.8,43.8,19.8,43.7z"/>
<circle fill="#C64226" cx="6" cy="6" r="6"/>
</svg>
