<!-- Generator: Adobe Illustrator 21.1.0, SVG Export Plug-In  -->
<svg version="1.2" baseProfile="tiny"
	 xmlns="http://www.w3.org/2000/svg" xmlns:xlink="http://www.w3.org/1999/xlink" xmlns:a="http://ns.adobe.com/AdobeSVGViewerExtensions/3.0/"
	 x="0px" y="0px" width="75px" height="56.2px" viewBox="0 0 75 56.2" xml:space="preserve">
<defs>
</defs>
<path fill-rule="evenodd" fill="#FFFFFF" d="M30.6,44.1c0.6,0,1.2-0.5,1.2-1.2c0-0.6-0.5-1.2-1.2-1.2H8.2c-0.6,0-1.2,0.5-1.2,1.2
	c0,0.6,0.5,1.2,1.2,1.2H30.6z M30.6,36.7c0.6,0,1.2-0.5,1.2-1.2c0-0.6-0.5-1.2-1.2-1.2H8.2c-0.6,0-1.2,0.5-1.2,1.2
	c0,0.6,0.5,1.2,1.2,1.2H30.6z M30.6,29.3c0.6,0,1.2-0.5,1.2-1.2c0-0.6-0.5-1.2-1.2-1.2H8.2c-0.6,0-1.2,0.5-1.2,1.2
	c0,0.6,0.5,1.2,1.2,1.2H30.6z M30.6,21.9c0.6,0,1.2-0.5,1.2-1.2c0-0.6-0.5-1.2-1.2-1.2H8.2c-0.6,0-1.2,0.5-1.2,1.2
	c0,0.6,0.5,1.2,1.2,1.2H30.6z M30.6,14.5c0.6,0,1.2-0.5,1.2-1.2c0-0.6-0.5-1.2-1.2-1.2H8.2c-0.6,0-1.2,0.5-1.2,1.2
	c0,0.6,0.5,1.2,1.2,1.2H30.6z M61.4,32.6v15.3h0l-5.5-5.5l-5.5,5.5h0V32.6c1.7,0.8,3.6,1.2,5.6,1.2S59.7,33.4,61.4,32.6L61.4,32.6z
	 M55.8,14.4c3.3,0,6,2.7,6,6c0,3.3-2.7,6-6,6s-6-2.7-6-6C49.9,17.1,52.5,14.4,55.8,14.4z M55.8,8.3c6.7,0,12.1,5.4,12.1,12.1
	c0,6.7-5.4,12.1-12.1,12.1c-6.7,0-12.1-5.4-12.1-12.1C43.7,13.7,49.1,8.3,55.8,8.3z M3.1,56.2h68.7c1.7,0,3.1-1.4,3.1-3.1v-50
	C75,1.4,73.6,0,71.9,0H3.1C1.4,0,0,1.4,0,3.1v50C0,54.8,1.4,56.2,3.1,56.2z"/>
</svg>
