<!-- Generator: Adobe Illustrator 21.1.0, SVG Export Plug-In  -->
<svg version="1.2" baseProfile="tiny"
	 xmlns="http://www.w3.org/2000/svg" xmlns:xlink="http://www.w3.org/1999/xlink" xmlns:a="http://ns.adobe.com/AdobeSVGViewerExtensions/3.0/"
	 x="0px" y="0px" width="90px" height="68.3px" viewBox="0 0 90 68.3" xml:space="preserve">
<defs>
</defs>
<path fill="#FFF" d="M13.8,10.3C13.3,3.7,17.9,2.2,21.9,0C21.7,5.2,19.5,10,13.8,10.3 M76.5,10.3c0.4-6.7-4.2-8.3-8.3-10.3
	C68.9,5.4,70.7,9.9,76.5,10.3 M10.2,15.4c4-2.4,2.8-10.2,0-13.1C8,5.4,6.2,13,10.2,15.4 M80.3,15.4c3.6-2.7,2.2-10.5-0.5-13.1
	C77.6,5.8,76,13.2,80.3,15.4 M20.3,9.4c-4.4,1.7-9.1,3.1-9.1,9.2C17.5,18.9,19.5,14,20.3,9.4 M79,18.7c0-6.2-4.7-7.7-9.2-9.2
	C71.1,14.3,72.7,18.8,79,18.7 M7.6,25c3.3-4,0.4-10.4-2.7-12.7C3.3,16.8,3.2,23.7,7.6,25 M82.7,25c4.3-1.2,4.6-8.9,2.4-12.7
	C82.4,15,79.3,21,82.7,25 M15.4,18.5c-3.6,2.3-7.9,5.3-6.5,11.4C14,29.1,15.9,24.2,15.4,18.5 M81.4,29.9c1.4-6.1-2.9-9.3-6.7-11.4
	C74.7,24.5,76.3,29,81.4,29.9 M8,34.3C9.5,28,5,25,1.1,23C1.3,28.9,3,33.2,8,34.3 M82.3,34.3c5-0.9,6.9-5.8,6.7-11.2
	C85.3,25.1,80.7,28,82.3,34.3 M14.9,27c-2.6,2.6-6.4,7.4-3.8,12.5C15.6,38.6,16.8,31.7,14.9,27 M75.2,27c-1.6,5-0.6,11.5,4,12.5
	C81.8,34.4,78.1,29.5,75.2,27 M10.3,41.2C10,35.5,5.4,34,0,33.4C1.8,37.5,4.2,42,10.3,41.2 M79.9,41.2c4.4,0.9,6.9-1.8,8.5-4.2
	c0.8-1.2,1.8-2.6,1.4-3.6C84.8,34.2,80.3,35.5,79.9,41.2 M16.7,35.9c-2.4,2.8-5.5,8.7-2.4,12.9C18.7,47.7,19,39.6,16.7,35.9
	 M76,48.8c3.1-4.2,0.2-10.3-2.5-12.9C71.4,39.9,71.5,47.6,76,48.8 M20.5,54.4c4.7-2,2.6-10.2,0.2-13.1
	C18.6,44.5,16.9,51.6,20.5,54.4 M69.6,54.4c3.8-2.5,2.2-10.2-0.2-13.1C67.3,44.5,65.1,52.1,69.6,54.4 M12.7,48
	c-0.7-5.1-5.5-7-11.2-6.3C3.7,45.1,6.6,49.6,12.7,48 M77.6,48c6.1,1.5,9.1-3,11.2-6.5C82.7,41.4,78.3,42.9,77.6,48 M29.4,58.9
	c2.7-5.2-1.2-10.2-4.4-12.3C23.9,52,25,57.9,29.4,58.9 M65.1,46.6c-3,2.3-6.9,7.2-4.2,12.3C65.3,58,66.6,51.7,65.1,46.6 M18.5,54
	c-1.1-4.4-6.9-5.8-12.1-4.4C8,52.6,13.5,56.7,18.5,54 M71.8,54c3.6,2,6.8,0.5,9.1-1.3c1.2-0.9,3.1-2.1,2.9-3.1
	C78.6,48.2,72.8,49.7,71.8,54 M41,61.5c-0.1-5.9-4.6-7.5-9.8-8.3C32.7,57.5,35,62.1,41,61.5 M55.8,58.9c1.4-1.5,3.1-3.7,2.9-5.8
	c-4.9,1-9.4,2.5-9.4,8.5C52.4,61.9,54.3,60.6,55.8,58.9 M25.6,58.9c-1.7-4.5-9-4.3-12.9-1.8C15.3,59.6,21.9,62.3,25.6,58.9
	 M64.7,58.9c3.7,3.3,10.5,0.8,12.9-2C73.4,54.8,66.4,54.4,64.7,58.9 M33.5,61.6c-0.1-0.7-3.1-1.9-4.5-2c-3.8-0.1-6.4,2.6-8.3,4
	c2.3,0.8,6.2,2.1,9.2,1.1C30.8,64.4,33.7,62.6,33.5,61.6 M61.1,59.6c-0.9,0.1-4.3,1.2-4.3,2.2c0,0.6,2.1,2,2.4,2.2
	c3.1,1.8,8.1,0.9,10.5-0.5C67.5,62.2,64.8,59.4,61.1,59.6 M29.5,67.3c4.4,1.9,11.4,1.3,12.7-3.1C37.7,61.1,31.9,64.3,29.5,67.3
	 M48,64.2c1.2,4.3,8.5,5.1,12.7,2.9C58.2,64.4,52.5,61.1,48,64.2 M45,60.6c-1.2,0-2.1,0.9-2.1,2.1s0.9,2.1,2.1,2.1s2.1-0.9,2.1-2.1
	S46.2,60.6,45,60.6"/>
</svg>
