<svg 
 xmlns="http://www.w3.org/2000/svg"
 xmlns:xlink="http://www.w3.org/1999/xlink"
 width="22px" height="16px">
<path fill="#FFF"
 d="M21.985,1.347 C21.985,0.604 21.480,0.000 20.858,0.000 L20.857,0.000 L1.125,0.033 C0.826,0.033 0.543,0.174 0.329,0.429 C0.117,0.684 0.001,1.022 0.001,1.383 L0.015,14.653 C0.015,15.013 0.133,15.352 0.346,15.606 C0.560,15.861 0.843,16.000 1.143,16.000 L1.144,16.000 L20.876,15.967 C21.496,15.966 22.000,15.360 22.000,14.617 L21.985,1.347 ZM19.621,1.351 L11.002,8.522 L2.365,1.379 L19.621,1.351 ZM14.647,9.876 L19.758,14.620 L2.229,14.650 L7.371,9.876 C7.617,9.647 7.661,9.223 7.472,8.930 C7.281,8.635 6.926,8.582 6.680,8.810 L1.141,13.952 L1.128,1.996 L10.681,9.898 C10.778,9.978 10.891,10.017 11.003,10.017 C11.115,10.017 11.227,9.977 11.324,9.896 L20.860,1.962 L20.875,13.949 L15.336,8.810 C15.092,8.582 14.737,8.635 14.546,8.930 C14.356,9.223 14.400,9.647 14.647,9.876 Z"/>
</svg>