<!-- Generator: Adobe Illustrator 21.1.0, SVG Export Plug-In  -->
<svg version="1.2" baseProfile="tiny"
	 xmlns="http://www.w3.org/2000/svg" xmlns:xlink="http://www.w3.org/1999/xlink" xmlns:a="http://ns.adobe.com/AdobeSVGViewerExtensions/3.0/"
	 x="0px" y="0px" width="80px" height="86px" viewBox="0 0 80 86" xml:space="preserve">
<defs>
</defs>
<path fill="#FFFFFF" d="M30,72v10c0,2.3,1.9,4,4,4h12c2.1,0,4-1.7,4-4V72H30z M61.5,60.4c-0.8,0.1-1.4,0.6-1.7,1.3
	c-0.2,0.7,0,1.6,0.5,2.1l5.2,5.2c0.7,0.8,2.1,0.8,2.9,0c0.7-0.8,0.7-2.1,0-2.9l-5.2-5.1c-0.4-0.4-0.9-0.6-1.4-0.6
	C61.6,60.4,61.6,60.4,61.5,60.4L61.5,60.4z M18.3,60.4c-0.5,0-1,0.2-1.4,0.6l-5.2,5.1c-0.8,0.7-0.8,2.1,0,2.9c0.7,0.8,2.1,0.8,2.9,0
	l5.2-5.2c0.6-0.6,0.8-1.5,0.5-2.2C19.8,60.9,19,60.4,18.3,60.4L18.3,60.4z M0,41c0,0.9,1,2,2,2h6c1.1,0,2-0.9,2-2s-1-2-2-2H2
	C0.9,39,0,40.1,0,41z M69,41c0,0.9,0.9,2,2,2h7c1.1,0,2-0.9,2-2s-0.9-2-2-2h-7C69.8,39,69,40.1,69,41z M40,18c-11.2,0-22,9.1-22,22
	c0,15.7,10.6,18,11.9,28h20.2C51.4,58,62,55.7,62,40C62,27.1,51.2,18,40,18z M12.8,12c-0.8,0.1-1.4,0.6-1.7,1.3
	c-0.2,0.7,0,1.6,0.5,2.1l4,4c0.7,0.8,2.1,0.8,2.9,0c0.7-0.8,0.7-2.1,0-2.9l-4-4C14,12.1,13.4,11.9,12.8,12L12.8,12z M67,11.9
	c-0.1,0-0.2,0-0.2,0c-0.4,0.1-0.9,0.3-1.2,0.6l-4,4c-0.8,0.7-0.8,2.1,0,2.9c0.7,0.8,2.1,0.8,2.9,0l4-4c0.6-0.5,0.8-1.5,0.5-2.2
	C68.6,12.4,67.8,11.9,67,11.9L67,11.9z M40,0c-0.9,0-2,1-2,2v6c0,1.1,0.9,2,2,2c1.1,0,2-1,2-2V2C42,0.9,40.9,0,40,0z"/>
</svg>
